{
	"asset":{
		"generator":"Khronos glTF Blender I/O v4.3.47",
		"version":"2.0"
	},
	"scene":0,
	"scenes":[
		{
			"name":"Scene",
			"nodes":[
				0
			]
		}
	],
	"nodes":[
		{
			"mesh":0,
			"name":"Cylinder.002_Material.004_0",
			"rotation":[
				-0.3019842803478241,
				0.6393790245056152,
				0.6393789649009705,
				0.30198433995246887
			],
			"scale":[
				0.7648523449897766,
				0.7648522853851318,
				1
			],
			"translation":[
				-1.9541243091225624e-05,
				1.0217496156692505,
				0.01629742607474327
			]
		}
	],
	"materials":[
		{
			"doubleSided":true,
			"name":"Material.004",
			"pbrMetallicRoughness":{
				"baseColorFactor":[
					0,
					0.8033919334411621,
					0.21962949633598328,
					1
				],
				"metallicFactor":0.699999988079071,
				"roughnessFactor":0.530205488204956
			}
		}
	],
	"meshes":[
		{
			"name":"Cylinder.002_Material.004_0",
			"primitives":[
				{
					"attributes":{
						"POSITION":0,
						"NORMAL":1,
						"TEXCOORD_0":2
					},
					"indices":3,
					"material":0
				}
			]
		}
	],
	"accessors":[
		{
			"bufferView":0,
			"componentType":5126,
			"count":43537,
			"max":[
				1.936378002166748,
				0.9828235507011414,
				0.9931607842445374
			],
			"min":[
				-0.982784628868103,
				-0.9829778075218201,
				-1.0078799724578857
			],
			"type":"VEC3"
		},
		{
			"bufferView":1,
			"componentType":5126,
			"count":43537,
			"type":"VEC3"
		},
		{
			"bufferView":2,
			"componentType":5126,
			"count":43537,
			"type":"VEC2"
		},
		{
			"bufferView":3,
			"componentType":5123,
			"count":353664,
			"type":"SCALAR"
		}
	],
	"bufferViews":[
		{
			"buffer":0,
			"byteLength":522444,
			"byteOffset":0,
			"target":34962
		},
		{
			"buffer":0,
			"byteLength":522444,
			"byteOffset":522444,
			"target":34962
		},
		{
			"buffer":0,
			"byteLength":348296,
			"byteOffset":1044888,
			"target":34962
		},
		{
			"buffer":0,
			"byteLength":707328,
			"byteOffset":1393184,
			"target":34963
		}
	],
	"buffers":[
		{
			"byteLength":2100512,
			"uri":"coffee.bin"
		}
	]
}
